# xmcd
#
# Track frame offsets:
#	150
#	16350
#	36842
#	56999
#	72864
#	95473
#	114014
#	138518
#
# Disc length: 2070 seconds
#
# Revision: 0
# Processed by: cddbd v1.5.2PL0 Copyright (c) Steve Scherf et al.
# Submitted via: EZCDAudioConverter 8.3.2.1
#
DISCID=68081408
DTITLE=Mustafa Yıldızdoğan - Gurbet Türküleri
DYEAR=2013
DGENRE=
TTITLE0=Gurbet Elde Bir Hal
TTITLE1=Ahu Gözlüm
TTITLE2=Derdim Çoktur
TTITLE3=Garibim Attı İlimden
TTITLE4=Gönül Gurbet Ele Varma
TTITLE5=Bilinir Gurbette
TTITLE6=Yolumuz Gurbete
TTITLE7=Gurbet Aldı Bırakmıyor
EXTD=
EXTT0=
EXTT1=
EXTT2=
EXTT3=
EXTT4=
EXTT5=
EXTT6=
EXTT7=
PLAYORDER=
